# xmcd
#
# Track frame offsets:
#	150
#	13067
#	24932
#	37882
#	51307
#	63627
#	76910
#	88557
#	101990
#	113090
#	126895
#	136347
#	148315
#	159272
#	174027
#	186542
#
# Disc length: 2651 seconds
#
# Revision: 2
# Processed by: cddbd v1.5.1PL2 Copyright (c) Steve Scherf et al.
# Submitted via: SynApp - FreeCDDB Version: 2.2
#
DISCID=d50a5910
DTITLE=Various Artist - Soul Vol 2
DYEAR=1990
DGENRE=Soul
TTITLE0=Pedrcy Sledge - When A Man Loves A Woman
TTITLE1=Diana Ross and the Supremes - Baby Love
TTITLE2=Stevie Wonder - Uptight (Everything´s Alright)
TTITLE3=Smokie Robinson and The Miracles - You´ve Really Got A Hold On Me
TTITLE4=Otis Redding - Sitting On The Dock Of The Bay
TTITLE5=Wilson Pickett - 634-5789
TTITLE6=Solomon Burke - Got To Get You Off My Mind
TTITLE7=Ben E. King - Stand By Me
TTITLE8=James Brown - I Got You (I Feel Good)
TTITLE9=Jr. Walker and The All Stars - Shotgun
TTITLE10=Sam Cooke - Wonderful World
TTITLE11=The Temptations - Get Ready
TTITLE12=Aretha Franklin - Respect
TTITLE13=Marvin Gaye - I Heard It Through The Grapevine
TTITLE14=The Four Tops - Baby I Need Your Loving
TTITLE15=Martha Reeves and The Vandellas - (Love Is Like A) Heatwave
EXTD=
EXTT0=
EXTT1=
EXTT2=
EXTT3=
EXTT4=
EXTT5=
EXTT6=
EXTT7=
EXTT8=
EXTT9=
EXTT10=
EXTT11=
EXTT12=
EXTT13=
EXTT14=
EXTT15=
PLAYORDER=
